<svg width="24" height="24" viewBox="0 0 24 24" fill="none" xmlns="http://www.w3.org/2000/svg">
<path fill-rule="evenodd" clip-rule="evenodd" d="M15.7895 17.7632C16.3345 17.7632 16.7763 17.3213 16.7763 16.7763C16.7763 16.2313 16.3345 15.7895 15.7895 15.7895H2.96051V17.7632H15.7895ZM14.3092 12.8289C14.8542 12.8289 15.296 12.3871 15.296 11.8421C15.296 11.2971 14.8542 10.8553 14.3092 10.8553H2.96051V12.8289H14.3092ZM2.96051 7.89474H17.2697C17.8147 7.89474 18.2566 7.45291 18.2566 6.90789C18.2566 6.36288 17.8147 5.92105 17.2697 5.92105H2.96051V7.89474Z" fill="#9B9B9B"/>
<path d="M2.96051 15.7895V15.5395H2.71051V15.7895H2.96051ZM2.96051 17.7632H2.71051V18.0132H2.96051V17.7632ZM2.96051 10.8553V10.6053H2.71051V10.8553H2.96051ZM2.96051 12.8289H2.71051V13.0789H2.96051V12.8289ZM2.96051 7.89474H2.71051V8.14474H2.96051V7.89474ZM2.96051 5.92105V5.67105H2.71051V5.92105H2.96051ZM15.7895 15.5395H2.96051V16.0395H15.7895V15.5395ZM2.71051 15.7895V17.7632H3.21051V15.7895H2.71051ZM2.96051 18.0132H15.7895V17.5132H2.96051V18.0132ZM17.0263 16.7763C17.0263 16.0932 16.4725 15.5395 15.7895 15.5395V16.0395C16.1964 16.0395 16.5263 16.3694 16.5263 16.7763H17.0263ZM16.5263 16.7763C16.5263 17.1833 16.1964 17.5132 15.7895 17.5132V18.0132C16.4725 18.0132 17.0263 17.4594 17.0263 16.7763H16.5263ZM14.3092 10.6053H2.96051V11.1053H14.3092V10.6053ZM2.71051 10.8553V12.8289H3.21051V10.8553H2.71051ZM2.96051 13.0789H14.3092V12.5789H2.96051V13.0789ZM15.546 11.8421C15.546 11.159 14.9923 10.6053 14.3092 10.6053V11.1053C14.7161 11.1053 15.046 11.4352 15.046 11.8421H15.546ZM15.046 11.8421C15.046 12.2491 14.7161 12.5789 14.3092 12.5789V13.0789C14.9923 13.0789 15.546 12.5252 15.546 11.8421H15.046ZM2.96051 8.14474H17.2697V7.64474H2.96051V8.14474ZM17.2697 5.67105H2.96051V6.17105H17.2697V5.67105ZM2.71051 5.92105V7.89474H3.21051V5.92105H2.71051ZM18.5066 6.90789C18.5066 6.2248 17.9528 5.67105 17.2697 5.67105V6.17105C17.6767 6.17105 18.0066 6.50095 18.0066 6.90789H18.5066ZM17.2697 8.14474C17.9528 8.14474 18.5066 7.59098 18.5066 6.90789H18.0066C18.0066 7.31484 17.6767 7.64474 17.2697 7.64474V8.14474Z" fill="white"/>
</svg>
